<?xml version="1.0" encoding="utf-8"?>
<!-- Generator: Adobe Illustrator 16.0.0, SVG Export Plug-In . SVG Version: 6.00 Build 0)  -->
<!DOCTYPE svg PUBLIC "-//W3C//DTD SVG 1.1//EN" "http://www.w3.org/Graphics/SVG/1.1/DTD/svg11.dtd">
<svg version="1.1" xmlns="http://www.w3.org/2000/svg" xmlns:xlink="http://www.w3.org/1999/xlink" x="0px" y="0px" width="1043px"
	 height="790.5px" viewBox="0 0 1043 790.5" enable-background="new 0 0 1043 790.5" xml:space="preserve">
<g id="Layer_1">
	<g>
		<path fill="none" stroke="#ED2025" stroke-miterlimit="10" d="M187.531,309.067"/>
		<path fill="none" stroke="#ED2025" stroke-miterlimit="10" d="M187.531,190.045"/>
		<line fill="none" stroke="#ED2025" stroke-miterlimit="10" x1="17.449" y1="309.103" x2="17.449" y2="190.045"/>
		<path fill="none" stroke="#ED2025" stroke-miterlimit="10" d="M187.531,192.88"/>
		<line fill="none" stroke="#ED2025" stroke-miterlimit="10" x1="187.531" y1="306.233" x2="187.529" y2="306.233"/>
		<path fill="none" stroke="#ED2025" stroke-miterlimit="10" d="M853.67,306.269"/>
		<path fill="none" stroke="#ED2025" stroke-miterlimit="10" d="M853.672,192.882"/>
		<path fill="none" stroke="#ED2025" stroke-miterlimit="10" d="M856.506,309.103"/>
		<line fill="none" stroke="#ED2025" stroke-miterlimit="10" x1="1029.419" y1="190.048" x2="1029.419" y2="309.103"/>
		<path fill="none" stroke="#ED2025" stroke-miterlimit="10" d="M1020.64,190.082"/>
		<rect x="904.623" y="221.264" fill="none" stroke="#ED2025" stroke-miterlimit="10" width="56.762" height="56.692"/>
		<line fill="none" stroke="#2E3192" stroke-miterlimit="10" x1="184.693" y1="309.103" x2="17.449" y2="309.103"/>
		<line fill="none" stroke="#2E3192" stroke-miterlimit="10" x1="17.449" y1="190.048" x2="184.693" y2="190.048"/>
		<line fill="none" stroke="#2E3192" stroke-miterlimit="10" x1="187.528" y1="192.882" x2="187.528" y2="306.269"/>
		<line fill="none" stroke="#2E3192" stroke-miterlimit="10" x1="853.672" y1="192.882" x2="187.529" y2="192.879"/>
		<line fill="none" stroke="#2E3192" stroke-miterlimit="10" x1="853.67" y1="306.269" x2="187.531" y2="306.233"/>
		<line fill="none" stroke="#2E3192" stroke-miterlimit="10" x1="859.347" y1="306.269" x2="859.347" y2="192.882"/>
		<path fill="none" stroke="#2E3192" stroke-miterlimit="10" d="M853.67,306.269"/>
		<path fill="none" stroke="#2E3192" stroke-miterlimit="10" d="M853.672,192.882"/>
		<line fill="none" stroke="#2E3192" stroke-miterlimit="10" x1="1029.419" y1="309.103" x2="867.844" y2="309.103"/>
		<line fill="none" stroke="#2E3192" stroke-miterlimit="10" x1="867.844" y1="190.08" x2="1029.419" y2="190.048"/>
		<g>
			<path fill="none" stroke="#ED2025" stroke-miterlimit="10" d="M1029.419,309.103c0,7.793,0,46.578,0,53.858
				c0,14.174,2.835,14.174-76.535,14.174c-93.543,0-93.543,0-93.543-14.174c0-1.835,8.503-49.078,8.503-51.023"/>
			<path fill="none" stroke="#ED2025" stroke-miterlimit="10" d="M17.449,309.103l0.002,76.607h0.039l28.307,28.389
				c-14.174,0.08-28.347,0-28.347,14.172h28.347h113.426h28.307c0-14.172-14.174-14.172-28.307-14.254l28.307-28.307v-76.535
				c0,0,0.572-1.682,2.833,5.597c1.682,5.414,39.686,116.221,39.686,116.221s8.504,25.513,28.346,25.513
				c20.244,0,133.21-0.001,524.411-0.001c0,0,20.115,0.002,28.348-25.512l45.354-121.89c2.833-2.834,11.338,0,11.338,2.835"/>
		</g>
		<polygon fill="none" stroke="#EF4557" stroke-miterlimit="10" points="54.301,306.269 54.301,292.096 31.624,292.096 
			31.622,306.234 		"/>
		<g>
			<path fill="none" stroke="#ED2025" stroke-miterlimit="10" d="M1029.419,190.047c0-7.793,0-46.578,0-53.858
				c0-14.174,2.835-14.174-76.535-14.174c-93.543,0-93.543,0-93.543,14.174c0,1.835,8.503,49.078,8.503,51.023"/>
			<path fill="none" stroke="#ED2025" stroke-miterlimit="10" d="M17.449,190.047l0.002-76.607h0.039l28.307-28.389
				c-14.174-0.08-28.347,0-28.347-14.172h28.347h113.426h28.307c0,14.172-14.174,14.172-28.307,14.254l28.307,28.307v76.535
				c0,0,0.572,1.682,2.833-5.597c1.682-5.414,39.686-116.221,39.686-116.221s8.504-25.513,28.346-25.513
				c20.244,0,133.21,0.001,524.411,0.001c0,0,20.115-0.002,28.348,25.512l45.353,121.89c2.833,2.834,11.339,0,11.339-2.835"/>
		</g>
		<line fill="none" stroke="#ED1C24" x1="465.901" y1="37.164" x2="465.854" y2="37.164"/>
	</g>
	<g>
		<line fill="none" stroke="#2E3192" stroke-miterlimit="10" x1="172.998" y1="521.701" x2="172.998" y2="662.018"/>
		<line fill="none" stroke="#2E3192" stroke-miterlimit="10" x1="87.958" y1="521.701" x2="87.958" y2="662.018"/>
		<line fill="none" stroke="#2E3192" stroke-miterlimit="10" x1="87.958" y1="663.434" x2="47.87" y2="623.346"/>
		<line fill="none" stroke="#2E3192" stroke-miterlimit="10" x1="172.998" y1="663.434" x2="213.085" y2="623.346"/>
		<polyline fill="none" stroke="#ED1C24" points="87.958,663.434 57.892,693.498 17.804,653.41 47.87,623.346 87.958,521.701 
			172.998,521.701 213.085,623.346 243.152,653.41 203.064,693.498 172.998,663.434 		"/>
		<polyline fill="none" stroke="#ED1C24" points="87.958,662.018 87.958,718.711 172.998,718.711 172.998,662.018 		"/>
		<line fill="none" stroke="#2E3192" stroke-miterlimit="10" x1="172.998" y1="662.018" x2="87.958" y2="662.018"/>
	</g>
	<g>
		<rect x="371.423" y="564.221" fill="none" stroke="#ED1C24" width="28.347" height="56.693"/>
		<path fill="none" stroke="#ED1C24" d="M343.077,663.434"/>
		<path fill="none" stroke="#ED1C24" d="M343.077,521.701"/>
		<path fill="none" stroke="#ED1C24" d="M428.116,521.701"/>
		<path fill="none" stroke="#ED1C24" d="M428.116,663.434"/>
		<line fill="none" stroke="#2E3192" stroke-miterlimit="10" x1="428.116" y1="663.434" x2="479.497" y2="687.393"/>
		<line fill="none" stroke="#2E3192" stroke-miterlimit="10" x1="343.077" y1="663.434" x2="291.696" y2="687.393"/>
		<line fill="none" stroke="#2E3192" stroke-miterlimit="10" x1="343.077" y1="662.018" x2="428.116" y2="662.018"/>
		<line fill="none" stroke="#2E3192" stroke-miterlimit="10" x1="343.077" y1="521.701" x2="343.077" y2="663.434"/>
		<line fill="none" stroke="#2E3192" stroke-miterlimit="10" x1="428.116" y1="521.701" x2="428.116" y2="663.434"/>
		<polyline fill="none" stroke="#ED1C24" points="361.046,701.969 309.666,725.93 291.696,687.393 343.077,521.701 428.116,521.701 
			479.497,687.393 461.527,725.93 410.146,701.969 		"/>
		<polyline fill="none" stroke="#ED1C24" points="428.116,662.018 428.116,663.434 402.339,718.709 368.853,718.709 
			343.077,663.434 343.077,662.018 		"/>
	</g>
</g>
<g id="printing">
</g>
</svg>
